<?xml version="1.0" standalone="no"?>
<!DOCTYPE svg PUBLIC "-//W3C//DTD SVG 20010904//EN"
 "http://www.w3.org/TR/2001/REC-SVG-20010904/DTD/svg10.dtd">
<svg version="1.0" xmlns="http://www.w3.org/2000/svg"
 width="512.000000pt" height="512.000000pt" viewBox="0 0 512.000000 512.000000"
 preserveAspectRatio="xMidYMid meet">
<metadata>
Created by potrace 1.11, written by Peter Selinger 2001-2013
</metadata>
<g transform="translate(0.000000,512.000000) scale(0.100000,-0.100000)"
fill="#000000" stroke="none">
<path d="M3998 4861 c-86 -36 -189 -79 -228 -95 -40 -16 -78 -35 -86 -43 -20
-20 -17 -62 7 -122 12 -28 20 -53 18 -54 -2 -2 -101 -43 -219 -92 -118 -48
-233 -96 -255 -105 -22 -10 -240 -100 -485 -200 -486 -200 -509 -212 -489
-270 18 -51 60 -62 126 -34 21 9 47 20 58 24 11 5 46 20 78 34 32 14 61 26 66
26 4 0 21 6 37 14 16 8 225 95 464 194 239 99 449 186 465 192 17 7 46 19 65
27 19 8 44 18 55 23 11 5 36 16 56 24 l37 14 143 -347 c78 -190 149 -362 158
-381 59 -140 88 -216 82 -222 -3 -3 -121 -53 -261 -111 -140 -58 -371 -153
-513 -212 l-258 -107 -21 29 c-39 51 -98 100 -157 132 -57 30 -169 60 -207 55
-10 -1 -44 -5 -76 -9 -204 -23 -382 -228 -379 -438 1 -38 3 -78 6 -90 5 -20
-5 -26 -102 -66 -59 -24 -126 -52 -148 -61 -22 -9 -47 -20 -56 -23 -13 -4 -52
81 -212 466 -150 363 -192 474 -182 480 8 4 96 41 197 83 276 114 275 113 286
139 18 39 -3 84 -42 93 -17 3 -35 5 -41 3 -65 -18 -544 -227 -557 -243 -23
-27 -23 -49 3 -109 12 -27 20 -52 17 -54 -3 -3 -126 -55 -274 -116 -148 -61
-282 -118 -297 -127 -38 -23 -42 -49 -18 -113 12 -30 21 -54 21 -55 0 0 -147
-61 -326 -135 -179 -74 -334 -142 -345 -152 -27 -25 -24 -51 16 -147 20 -47
63 -152 97 -235 65 -160 88 -195 125 -195 12 0 170 61 349 135 180 74 328 135
330 135 1 0 10 -20 19 -45 20 -52 46 -78 77 -77 13 0 149 52 304 116 154 64
285 116 290 116 6 0 18 -23 28 -50 29 -81 69 -97 149 -61 59 28 338 141 346
141 3 0 18 -15 33 -34 l28 -34 -139 -344 c-224 -556 -447 -1108 -638 -1578
-30 -74 -56 -153 -58 -175 -11 -142 129 -242 265 -187 57 23 85 68 170 280 46
114 89 221 96 237 7 17 61 149 119 295 58 146 110 274 115 285 5 11 39 94 76
185 36 91 120 298 186 460 66 162 122 303 125 313 3 9 8 17 12 17 4 0 41 -84
83 -187 41 -104 180 -447 308 -763 128 -316 275 -678 326 -805 101 -252 127
-294 197 -318 132 -45 262 53 252 189 -4 59 -242 644 -273 672 -42 40 -111 12
-112 -44 0 -20 15 -65 40 -119 30 -65 210 -519 210 -529 0 -17 -33 -46 -51
-46 -29 0 -41 20 -100 166 -33 82 -64 158 -69 169 -5 11 -37 90 -71 175 -33
85 -67 169 -74 185 -7 17 -75 183 -150 370 -76 187 -191 473 -257 635 -66 162
-122 304 -125 315 -4 16 4 23 40 37 l44 16 71 -177 c262 -651 266 -660 286
-673 38 -26 106 10 106 55 0 19 -77 224 -125 332 -7 17 -41 100 -75 185 -35
85 -78 193 -97 240 -19 47 -38 94 -43 106 -7 17 0 33 30 75 52 74 82 166 82
255 0 39 -3 80 -6 91 -6 18 16 29 206 108 117 48 238 98 268 111 30 13 165 69
299 124 134 55 248 103 253 106 4 3 20 -21 34 -53 29 -65 57 -93 90 -87 30 5
452 181 481 200 34 21 29 65 -16 172 -31 72 -37 95 -28 105 59 61 117 161 117
201 0 32 -44 67 -76 62 -35 -7 -39 -11 -74 -72 -17 -31 -35 -53 -39 -48 -4 5
-70 160 -146 344 -75 184 -144 348 -152 364 l-15 29 41 -6 c165 -22 330 -193
362 -375 17 -93 65 -128 119 -84 36 30 31 116 -16 232 -80 202 -285 357 -499
377 l-64 6 -38 94 c-44 108 -63 133 -101 132 -15 -1 -98 -31 -184 -68z m377
-656 c285 -688 297 -717 293 -719 -2 -2 -50 -22 -108 -46 -58 -24 -125 -52
-149 -62 -25 -11 -47 -16 -52 -11 -5 5 -32 65 -60 133 -28 69 -66 161 -84 205
-18 44 -110 267 -205 495 -95 228 -173 421 -174 428 -1 14 295 143 305 133 4
-3 109 -253 234 -556z m-2826 -1012 c23 -54 81 -195 130 -313 l88 -214 -249
-103 c-137 -57 -250 -103 -252 -103 -2 0 -38 84 -81 188 -42 103 -83 201 -90
217 -50 115 -85 209 -83 217 3 8 161 77 318 139 14 5 54 23 90 38 36 16 70 29
76 30 7 1 30 -43 53 -96z m1325 -117 c80 -39 145 -125 162 -211 17 -91 2 -166
-49 -242 -107 -160 -340 -181 -477 -42 -182 184 -73 495 184 528 66 9 112 0
180 -33z m-1871 -358 c37 -89 64 -165 60 -168 -5 -4 -91 -41 -193 -83 -102
-42 -228 -94 -280 -116 -86 -36 -96 -38 -104 -23 -6 9 -38 84 -72 165 l-62
148 46 21 c134 58 518 217 528 217 5 1 40 -72 77 -161z m1561 -339 c39 -17 45
-23 37 -38 -6 -10 -62 -148 -126 -307 -64 -159 -122 -302 -130 -319 -7 -16
-45 -111 -85 -210 -40 -99 -78 -193 -86 -209 -8 -16 -14 -33 -14 -38 0 -4 -9
-27 -19 -51 -11 -23 -81 -195 -156 -382 -206 -512 -194 -484 -221 -491 -31 -8
-63 19 -59 49 1 12 32 94 68 182 35 88 122 302 192 475 70 173 133 329 140
345 13 28 86 210 205 510 29 72 60 148 69 170 10 22 44 106 77 187 32 82 60
148 60 148 1 0 22 -9 48 -21z"/>
<path d="M3460 4183 c-8 -3 -89 -37 -180 -74 -160 -67 -200 -92 -200 -129 0
-27 39 -70 63 -70 12 0 106 34 209 77 190 78 208 90 208 142 0 39 -57 70 -100
54z"/>
<path d="M3391 1421 c-12 -12 -21 -33 -21 -48 1 -44 54 -156 79 -169 32 -16
73 -3 91 29 13 23 13 32 -5 83 -29 84 -54 118 -92 122 -22 2 -38 -3 -52 -17z"/>
</g>
</svg>
