<?xml version="1.0"?>
<svg xmlns="http://www.w3.org/2000/svg" xmlns:xlink="http://www.w3.org/1999/xlink" width="512" height="512" viewBox="0 0 128 128"><defs><linearGradient id="a" x1="98.337" y1="106.825" x2="29.661" y2="38.149" gradientUnits="userSpaceOnUse"><stop offset="0" stop-color="#7b49ad"/><stop offset="1" stop-color="#6aa8fb"/></linearGradient></defs><path d="M87.468,60.958c-.075-3.315-.269-6.7-.641-10.121a1.75,1.75,0,0,0-3.48.379c1.767,16.239-.425,31.994-1.734,41.408-.176,1.267-.337,2.423-.471,3.456H69.39A20.375,20.375,0,0,0,70.5,89.5V64a1.751,1.751,0,0,0-1.75-1.75h-9.5A1.751,1.751,0,0,0,57.5,64V89.5a20.375,20.375,0,0,0,1.11,6.581H46.857c-.134-1.024-.294-2.17-.468-3.424C43.867,74.573,38.011,32.568,64,8.839c7.728,7.06,13.281,16.343,16.517,27.618a1.75,1.75,0,0,0,3.364-.966C80.3,23,73.992,12.8,65.143,5.174a1.753,1.753,0,0,0-2.286,0C45.661,19.993,40.965,41.79,40.529,60.963A60.926,60.926,0,0,0,29.775,73.958a1.75,1.75,0,1,0,2.988,1.823,56.37,56.37,0,0,1,7.743-9.921,212.881,212.881,0,0,0,2.416,27.279c.149,1.066.284,2.043.4,2.941H25.993a42.368,42.368,0,0,1,3.465-13.917,1.75,1.75,0,1,0-3.216-1.383,44.538,44.538,0,0,0-3.8,17.05,1.751,1.751,0,0,0,1.75,1.75H43.56v8.43L39.5,114.788a1.751,1.751,0,0,0,1.5,2.65h8.83a7.691,7.691,0,0,0,7.5,5.812H70.67a7.691,7.691,0,0,0,7.5-5.812H87a1.751,1.751,0,0,0,1.5-2.65L84.44,108.01V99.58h19.37a1.751,1.751,0,0,0,1.75-1.75C105.56,93.059,104.234,76.423,87.468,60.958ZM61,65.75h6V89.5a16.89,16.89,0,0,1-3,9.617A16.89,16.89,0,0,1,61,89.5Zm9.67,54H57.33a4.262,4.262,0,0,1-3.757-2.312H74.427A4.262,4.262,0,0,1,70.67,119.75Zm-26.582-5.812,2.21-3.688H52.25a1.75,1.75,0,0,0,0-3.5H47.06V99.58H60.183A20.46,20.46,0,0,0,62.7,103.1a1.75,1.75,0,0,0,2.61,0,20.46,20.46,0,0,0,2.512-3.524H80.94v7.17H59.417a1.75,1.75,0,0,0,0,3.5H81.7l2.21,3.688ZM84.673,96.08c.12-.908.257-1.895.407-2.974a213.754,213.754,0,0,0,2.414-27.248C99.448,78.1,101.66,90.532,102,96.08Zm.761-54.235q.345,1.681.624,3.369a1.751,1.751,0,0,1-1.44,2.013,1.779,1.779,0,0,1-.289.024A1.751,1.751,0,0,1,82.6,45.787q-.269-1.621-.6-3.241a1.75,1.75,0,0,1,3.429-.7Zm-4.026,27c-.15,4.554-.513,9.3-1.11,14.518a1.75,1.75,0,0,1-1.736,1.552,1.694,1.694,0,0,1-.2-.012,1.749,1.749,0,0,1-1.54-1.937c.586-5.121.942-9.778,1.089-14.237a1.75,1.75,0,0,1,3.5.116ZM53.4,41.5A10.6,10.6,0,1,0,64,30.9,10.608,10.608,0,0,0,53.4,41.5Zm17.692,0A7.1,7.1,0,1,1,64,34.4,7.1,7.1,0,0,1,71.1,41.5Z" fill="url(#a)"/></svg>
