<svg height="512" viewBox="0 0 128 128" width="512" xmlns="http://www.w3.org/2000/svg" xmlns:xlink="http://www.w3.org/1999/xlink"><linearGradient id="a" gradientUnits="userSpaceOnUse" x1="114.583" x2="38.104" y1="103.368" y2="26.89"><stop offset="0" stop-color="#7b49ad"/><stop offset="1" stop-color="#6aa8fb"/></linearGradient><path d="m87.561 93.063 1.059 2.619a1.75 1.75 0 1 1 -3.244 1.312l-1.06-2.619a1.75 1.75 0 0 1 3.245-1.312zm-8.782-62.8a1.739 1.739 0 0 0 .669-.133l8.474-3.509a1.75 1.75 0 0 0 -1.34-3.234l-8.474 3.513a1.751 1.751 0 0 0 .671 3.368zm30.743-16.2 7.786 18.818a11.8 11.8 0 0 0 1.373-2.272 1.75 1.75 0 1 1 3.183 1.455 15.36 15.36 0 0 1 -3.07 4.407l1.922 4.646a1.751 1.751 0 0 1 -.947 2.286l-11.083 4.597a1.753 1.753 0 0 1 -2.288-.948l-1.05-2.539-26.09 10.8a11.2 11.2 0 0 1 -2.747 10.443l8.649 21.373a1.75 1.75 0 1 1 -3.244 1.312l-8.279-20.466a11.264 11.264 0 0 1 -2.311.927l20.246 50.072a1.253 1.253 0 0 0 2.2.225 1.234 1.234 0 0 0 .12-1.161l-6-14.841a1.75 1.75 0 1 1 3.244-1.312l6 14.839a4.749 4.749 0 0 1 -8.8 3.566l-20.076-49.635-20.068 49.631a4.75 4.75 0 0 1 -9.152-1.776 4.813 4.813 0 0 1 .342-1.773l20.627-50.989a11.377 11.377 0 0 1 -1.428-1.879l-9.781 4.048a1.75 1.75 0 0 1 -2.286-.948l-.987-2.384-14.227 5.893a1.75 1.75 0 0 1 -2.286-.949l-.858-2.074-16.2 6.7a1.75 1.75 0 0 1 -2.286-.948l-4.79-11.57a1.749 1.749 0 0 1 .948-2.286l16.2-6.709-.858-2.075a1.751 1.751 0 0 1 .948-2.286l14.222-5.891-.987-2.39a1.751 1.751 0 0 1 .948-2.286l13.179-5.457a1.75 1.75 0 0 1 1.339 3.234l-11.563 4.786.989 2.391 8.831 21.342 8.168-3.381a11.318 11.318 0 0 1 20.659-8.556l26.105-10.8-9.819-23.735-35.346 14.632a1.75 1.75 0 0 1 -1.343-3.234l35.351-14.636-1.051-2.542a1.751 1.751 0 0 1 .947-2.286l11.083-4.589a1.752 1.752 0 0 1 2.287.948l1.917 4.634a15.279 15.279 0 0 1 15.155 13.871 1.751 1.751 0 0 1 -1.583 1.9c-.054 0-.108.007-.162.007a1.751 1.751 0 0 1 -1.741-1.59 11.77 11.77 0 0 0 -10.179-10.59zm-82.704 50.157-3.45-8.342-14.582 6.039 3.452 8.337zm17.37-2.869-6.506-15.724-12.606 5.221.843 2.04c0 .011.013.02.018.032s.006.024.01.035l5.631 13.618zm16.237-3.351a7.835 7.835 0 1 0 7.835-7.835 7.844 7.844 0 0 0 -7.835 7.835zm4.769 10.9a11.264 11.264 0 0 1 -2.311-.927l-20.251 50.063a1.318 1.318 0 0 0 -.092.474 1.25 1.25 0 0 0 2.409.46zm51.618-28.06-13.262-32.054-7.85 3.25 1.044 2.523c0 .008.009.014.012.022s0 .016.007.024l11.137 26.91c.005.012.014.023.019.036s.007.026.012.039l1.035 2.5z" fill="url(#a)"/></svg>